Coordinates
version=1
nRows=32
nColumns=22
inDegrees=yes

Units are S.I. units (second, meters, Newtons, ...)
If the header above contains a line with 'inDegrees', this indicates whether rotational values are in degrees (yes) or radians (no).

endheader
time	pelvis_tilt	pelvis_list	pelvis_rotation	pelvis_tx	pelvis_ty	pelvis_tz	hip_flexion_r	hip_adduction_r	hip_rotation_r	knee_angle_r	ankle_angle_r	subtalar_angle_r	hip_flexion_l	hip_adduction_l	hip_rotation_l	knee_angle_l	ankle_angle_l	subtalar_angle_l	lumbar_extension	lumbar_bending	lumbar_rotation
      1.67000000	     -7.64828877	      3.39702094	    123.05217929	     -0.80632383	      0.91749799	      0.63935645	     -3.46854441	      2.41023724	      6.04400426	    -59.06184653	    -10.40961858	      4.59555908	     16.99083265	      0.43768233	     -2.47135196	    -33.97401509	     16.03246128	     -8.21976342	    -13.79636127	     -1.12327987	     -7.20885290
      1.68000000	     -7.70325830	      3.28390236	    122.27875669	     -0.81203497	      0.91882042	      0.63185533	     -1.25784829	      2.05673053	      5.59322038	    -61.60817766	     -9.44719258	      4.36588309	     16.15385179	      0.50846477	     -3.16982564	    -33.69193849	     16.69641380	     -8.47569988	    -13.88994624	     -1.26704885	     -7.58648801
      1.69000000	     -7.70859662	      3.19446845	    121.54146748	     -0.81759265	      0.92030423	      0.62443719	      0.95428654	      1.77936929	      5.10804663	    -63.82818506	     -8.27310118	      3.85349218	     15.28867953	      0.54754094	     -3.82576157	    -33.30902907	     17.28422545	     -8.75466251	    -13.97551237	     -1.33574329	     -7.94162064
      1.70000000	     -7.67256501	      3.15346302	    120.84585823	     -0.82300293	      0.92202728	      0.61702310	      3.09396800	      1.59518667	      4.59903407	    -65.66083702	     -7.00067052	      3.16770486	     14.35402953	      0.54012436	     -4.45130282	    -32.80871149	     17.76263625	     -8.97777145	    -14.07204202	     -1.32791371	     -8.31442660
      1.71000000	     -7.59101204	      3.17268289	    120.21186058	     -0.82828556	      0.92398637	      0.60959591	      5.12548315	      1.51072322	      4.02998436	    -67.08661187	     -5.69485687	      2.33308700	     13.34915420	      0.47363099	     -5.04015692	    -32.21121416	     18.15818719	     -9.15543619	    -14.18785970	     -1.23268761	     -8.70474006
      1.72000000	     -7.46439663	      3.25622152	    119.64553442	     -0.83345453	      0.92617193	      0.60212182	      7.02064635	      1.52021277	      3.37936540	    -68.09578714	     -4.39736492	      1.45443809	     12.26707363	      0.34042119	     -5.60590473	    -31.51856309	     18.47450264	     -9.27200838	    -14.32433605	     -1.05166273	     -9.11556987
      1.73000000	     -7.30617311	      3.39172698	    119.13889533	     -0.83851087	      0.92853186	      0.59459339	      8.77643260	      1.59503493	      2.64676812	    -68.70938922	     -3.12849501	      0.66375448	     11.11499515	      0.15300706	     -6.17743976	    -30.74127173	     18.69715705	     -9.33032157	    -14.47728097	     -0.80897856	     -9.54458193
      1.74000000	     -7.11497293	      3.57388956	    118.68697286	     -0.84346577	      0.93102743	      0.58699297	     10.38201396	      1.73737916	      1.85005147	    -68.92838458	     -1.90454531	     -0.00888551	      9.87892743	     -0.07504905	     -6.71011772	    -29.84585120	     18.86980031	     -9.33714235	    -14.64094263	     -0.51092938	     -9.97469837
      1.75000000	     -6.92052532	      3.78858349	    118.29659292	     -0.84839222	      0.93355293	      0.57935635	     11.84271066	      1.86672903	      0.94323944	    -68.79883932	     -0.77880295	     -0.54896389	      8.59322705	     -0.32436377	     -7.28887226	    -28.90582740	     19.05248548	     -9.29094227	    -14.81834817	     -0.18248858	    -10.45311017
      1.76000000	     -6.72002438	      4.00095744	    117.93290047	     -0.85325768	      0.93602747	      0.57167476	     13.19630736	      1.98782047	      0.00121385	    -68.34779870	      0.27970453	     -0.84138852	      7.27035127	     -0.56240563	     -7.85156501	    -27.87812544	     19.17784916	     -9.21545443	    -14.97601901	      0.15052309	    -10.91502698
      1.77000000	     -6.53018821	      4.20935800	    117.60124412	     -0.85810592	      0.93838198	      0.56396467	     14.43531225	      2.06524312	     -0.99248220	    -67.60119874	      1.24365004	     -1.01941841	      5.92892504	     -0.77967292	     -8.44264632	    -26.81321601	     19.28190095	     -9.10709135	    -15.12241619	      0.47450572	    -11.39326846
      1.78000000	     -6.31894794	      4.35280306	    117.30268592	     -0.86292840	      0.94041780	      0.55627914	     15.65117270	      2.09930467	     -2.03395216	    -66.60391836	      2.15208291	     -1.02163502	      4.68587725	     -0.97688221	     -9.03230852	    -25.78334007	     19.40805318	     -9.02744977	    -15.18595511	      0.79319072	    -11.86966615
      1.79000000	     -6.18844565	      4.58707895	    117.01123807	     -0.86771570	      0.94246140	      0.54853224	     16.61400288	      2.07594859	     -3.08264071	    -65.32670702	      2.84933716	     -1.12494910	      3.26752940	     -1.11966063	     -9.61894241	    -24.66447650	     19.46494192	     -8.82126009	    -15.38124507	      1.08170013	    -12.35016698
      1.80000000	     -6.02929810	      4.73891922	    116.75472795	     -0.87245268	      0.94404070	      0.54082959	     17.58392537	      2.01324208	     -4.17423996	    -63.84485943	      3.48842950	     -1.18006272	      2.00344470	     -1.24748162	    -10.19383461	    -23.64494829	     19.58027650	     -8.61695396	    -15.47604727	      1.35499921	    -12.82212455
      1.81000000	     -5.88475150	      4.86382727	    116.51696143	     -0.87715201	      0.94526690	      0.53313834	     18.47658109	      1.90310009	     -5.28163338	    -62.15507898	      4.01670460	     -1.23870003	      0.79082169	     -1.33921328	    -10.75103926	    -22.68016167	     19.73026519	     -8.39715938	    -15.55065107	      1.60361538	    -13.27528680
      1.82000000	     -5.74078312	      4.92393622	    116.30962637	     -0.88182823	      0.94603085	      0.52547682	     19.34358324	      1.73850555	     -6.41829119	    -60.28166547	      4.48815104	     -1.25531966	     -0.30290334	     -1.39437934	    -11.26535484	    -21.81271993	     19.96589002	     -8.23783533	    -15.55866573	      1.82160526	    -13.70135216
      1.83000000	     -5.65353970	      5.02245336	    116.09109633	     -0.88641353	      0.94656936	      0.51772320	     20.03702312	      1.55578181	     -7.50670745	    -58.19312088	      4.75633718	     -1.36629075	     -1.46402182	     -1.40731765	    -11.80173071	    -20.94899087	     20.16295040	     -8.02064570	    -15.63376855	      1.99092680	    -14.10169131
      1.84000000	     -5.57670626	      5.05854531	    115.89118940	     -0.89097726	      0.94664359	      0.50993066	     20.69545038	      1.33169095	     -8.59835502	    -55.93388475	      4.98154705	     -1.44546216	     -2.51877380	     -1.37985758	    -12.30617314	    -20.18272571	     20.45029827	     -7.87620637	    -15.64517104	      2.11596462	    -14.46247049
      1.85000000	     -5.53569365	      5.08070842	    115.69252236	     -0.89550149	      0.94637415	      0.50202681	     21.24846265	      1.08743878	     -9.65873886	    -53.49133609	      5.11339042	     -1.50895811	     -3.55189864	     -1.31022196	    -12.80348485	    -19.47524718	     20.79123899	     -7.76708372	    -15.65600718	      2.19101809	    -14.78600591
      1.86000000	     -5.52984247	      5.09230096	    115.49059415	     -0.89997919	      0.94577952	      0.49398416	     21.69364993	      0.82891830	    -10.69457952	    -50.87385039	      5.15780861	     -1.54161327	     -4.56486158	     -1.20452278	    -13.29579241	    -18.83226387	     21.19578288	     -7.66891710	    -15.66764615	      2.21518471	    -15.06832342
      1.87000000	     -5.56512834	      5.09626444	    115.27197025	     -0.90437985	      0.94488938	      0.48576687	     22.02655060	      0.57194947	    -11.67719195	    -48.08482523	      5.11788262	     -1.53622995	     -5.56892227	     -1.05840393	    -13.79012836	    -18.24682364	     21.64229219	     -7.56158860	    -15.68010829	      2.18079708	    -15.33783274
      1.88000000	     -5.63742472	      5.10138217	    115.04489441	     -0.90869948	      0.94373522	      0.47740156	     22.24424720	      0.31863923	    -12.63820054	    -45.13568537	      5.01630549	     -1.47637188	     -6.56313945	     -0.88287088	    -14.26994874	    -17.72886222	     22.12635622	     -7.42925154	    -15.70673645	      2.09916289	    -15.58621736
      1.89000000	     -5.73760492	      5.10341809	    114.81755419	     -0.91293840	      0.94232240	      0.46890567	     22.35996761	      0.07302781	    -13.60510075	    -42.04462564	      4.87251673	     -1.34774595	     -7.52735984	     -0.68915577	    -14.71891922	    -17.29722519	     22.65344807	     -7.26751840	    -15.73629736	      1.98103133	    -15.83147939
      1.90000000	     -5.86262881	      5.10175510	    114.58692710	     -0.91705879	      0.94067476	      0.46028091	     22.38450460	     -0.15925814	    -14.59863876	    -38.83522238	      4.71563978	     -1.13531575	     -8.45880402	     -0.48401820	    -15.14080084	    -16.95340174	     23.18995166	     -7.06576169	    -15.76629033	      1.82406840	    -16.06314060
      1.91000000	     -5.99528408	      5.07915417	    114.37319065	     -0.92106996	      0.93877457	      0.45157933	     22.35086930	     -0.36873268	    -15.63418225	    -35.53734088	      4.56273729	     -0.87211681	     -9.30496819	     -0.28596684	    -15.51461376	    -16.74262570	     23.78014708	     -6.84831473	    -15.77289646	      1.64966051	    -16.33828073
      1.92000000	     -6.13466346	      5.05654244	    114.15934538	     -0.92492949	      0.93668478	      0.44275678	     22.24744448	     -0.53980479	    -16.72546437	    -32.18869162	      4.43538548	     -0.53293181	    -10.10717043	     -0.10299550	    -15.85612608	    -16.62960808	     24.37212243	     -6.59067677	    -15.77502705	      1.45823857	    -16.60372398
      1.93000000	     -6.26176743	      5.03361967	    113.94295989	     -0.92861804	      0.93442434	      0.43381060	     22.08746197	     -0.63899065	    -17.83910277	    -28.81976262	      4.34829960	     -0.08991954	    -10.85956605	      0.04977160	    -16.12775124	    -16.60755256	     24.96924839	     -6.26513758	    -15.76564924	      1.27000325	    -16.85531886
      1.94000000	     -6.35492894	      4.96505536	    113.77146172	     -0.93219852	      0.93191637	      0.42478955	     21.95251003	     -0.70159611	    -19.07822601	    -25.52800770	      4.32167396	      0.24790147	    -11.45057088	      0.13910161	    -16.37112693	    -16.78447034	     25.64719423	     -6.03008382	    -15.68786742	      1.09938233	    -17.17172184
      1.95000000	     -6.43332128	      4.94705364	    113.57645147	     -0.93556058	      0.92938129	      0.41559384	     21.72848226	     -0.64799987	    -20.25058799	    -22.31043907	      4.33333600	      0.77941873	    -12.06671191	      0.18157111	    -16.54842953	    -17.00963179	     26.25540198	     -5.67340043	    -15.65585456	      0.95127925	    -17.43787392
      1.96000000	     -6.45799885	      4.90116398	    113.41026874	     -0.93881930	      0.92668213	      0.40626525	     21.54723143	     -0.52789028	    -21.48077259	    -19.29939185	      4.41540012	      1.27275428	    -12.55857150	      0.14496648	    -16.67989060	    -17.38797431	     26.90681097	     -5.38085401	    -15.56234942	      0.85069556	    -17.72971834
      1.97000000	     -6.43309229	      4.86982511	    113.25456341	     -0.94198167	      0.92393462	      0.39676485	     21.37076695	     -0.32415214	    -22.69239033	    -16.55070816	      4.56346593	      1.83095688	    -13.00200093	      0.03096039	    -16.76069441	    -17.86323981	     27.54054377	     -5.09597685	    -15.45194084	      0.81653482	    -18.02702504
      1.98000000	     -6.34708610	      4.82831294	    113.12955818	     -0.94508581	      0.92112223	      0.38713044	     21.25412039	     -0.06588476	    -23.90032636	    -14.16530311	      4.80828313	      2.20906375	    -13.34007262	     -0.16845584	    -16.75935007	    -18.48698920	     28.19591813	     -4.93278886	    -15.29795391	      0.85588660	    -18.34301809
